<?xml version="1.0" encoding="iso-8859-1"?>
<!-- Generator: Adobe Illustrator 19.0.0, SVG Export Plug-In . SVG Version: 6.00 Build 0)  -->
<svg version="1.1" id="Layer_1" xmlns="http://www.w3.org/2000/svg" xmlns:xlink="http://www.w3.org/1999/xlink" x="0px" y="0px"
	 viewBox="0 0 512 512" style="enable-background:new 0 0 512 512;" xml:space="preserve">
<g>
	<circle style="fill:#87DFD6;" cx="256" cy="100.174" r="22.261"/>
	<rect x="456.348" y="233.739" style="fill:#87DFD6;" width="44.522" height="133.565"/>
	<rect x="11.13" y="233.739" style="fill:#87DFD6;" width="44.522" height="133.565"/>
</g>
<polygon style="fill:#DFF5F2;" points="167.699,166.957 100.174,166.957 55.652,166.957 55.652,434.087 456.348,434.087 
	456.348,166.957 "/>
<g>
	<circle style="fill:#87DFD6;" cx="166.957" cy="278.261" r="22.261"/>
	<circle style="fill:#87DFD6;" cx="345.043" cy="278.261" r="22.261"/>
</g>
<path style="fill:#4A7DBA;" d="M256,378.435c30.736,0,55.652-24.917,55.652-55.652H200.348
	C200.348,353.518,225.264,378.435,256,378.435z"/>
<path d="M123.659,171.208c0.278,0.679,0.623,1.325,1.024,1.926c0.401,0.612,0.868,1.18,1.38,1.692s1.08,0.979,1.692,1.38
	c0.601,0.412,1.258,0.746,1.926,1.024s1.369,0.501,2.081,0.646c0.712,0.134,1.447,0.211,2.17,0.211c0.735,0,1.458-0.078,2.182-0.211
	c0.712-0.145,1.414-0.367,2.081-0.646s1.313-0.612,1.914-1.024c0.612-0.401,1.18-0.868,1.703-1.38
	c0.512-0.512,0.968-1.08,1.38-1.692c0.401-0.601,0.746-1.247,1.024-1.926c0.278-0.668,0.49-1.369,0.634-2.081
	c0.145-0.712,0.211-1.447,0.211-2.17c0-0.723-0.067-1.458-0.211-2.17c-0.145-0.712-0.356-1.414-0.634-2.081
	c-0.278-0.679-0.623-1.325-1.024-1.926c-0.412-0.612-0.868-1.18-1.38-1.692c-0.523-0.512-1.091-0.979-1.703-1.38
	c-0.601-0.401-1.247-0.746-1.914-1.024c-0.668-0.278-1.369-0.501-2.081-0.634c-1.436-0.289-2.916-0.289-4.352,0
	c-0.712,0.134-1.414,0.356-2.081,0.634c-0.668,0.278-1.325,0.623-1.926,1.024c-0.612,0.401-1.18,0.868-1.692,1.38
	c-0.512,0.512-0.979,1.08-1.38,1.692c-0.401,0.601-0.746,1.247-1.024,1.926c-0.278,0.668-0.49,1.369-0.634,2.081
	c-0.145,0.712-0.223,1.447-0.223,2.17c0,0.723,0.078,1.458,0.223,2.17C123.169,169.839,123.381,170.541,123.659,171.208z"/>
<path d="M500.87,222.609h-33.391v-55.652c0-6.147-4.983-11.13-11.13-11.13H267.13v-24.175c12.955-4.595,22.261-16.966,22.261-31.477
	c0-18.412-14.979-33.391-33.391-33.391s-33.391,14.979-33.391,33.391c0,14.51,9.306,26.882,22.261,31.477v24.175h-77.171
	c-6.147,0-11.13,4.983-11.13,11.13s4.983,11.13,11.13,11.13h277.518v55.652v133.565v55.652H66.783v-55.652V233.739v-55.652h33.391
	c6.147,0,11.13-4.983,11.13-11.13s-4.983-11.13-11.13-11.13H55.652c-6.147,0-11.13,4.983-11.13,11.13v55.652H11.13
	c-6.147,0-11.13,4.983-11.13,11.13v133.565c0,6.147,4.983,11.13,11.13,11.13h33.391v55.652c0,6.147,4.983,11.13,11.13,11.13h400.696
	c6.147,0,11.13-4.983,11.13-11.13v-55.652h33.391c6.147,0,11.13-4.983,11.13-11.13V233.739
	C512,227.592,507.017,222.609,500.87,222.609z M256,89.043c6.137,0,11.13,4.993,11.13,11.13s-4.993,11.13-11.13,11.13
	c-6.137,0-11.13-4.993-11.13-11.13S249.863,89.043,256,89.043z M22.261,356.174V244.87h22.261v111.304H22.261z M489.739,356.174
	h-22.261V244.87h22.261V356.174z"/>
<path d="M166.957,244.87c-18.412,0-33.391,14.979-33.391,33.391s14.979,33.391,33.391,33.391s33.391-14.979,33.391-33.391
	S185.368,244.87,166.957,244.87z M166.957,289.391c-6.137,0-11.13-4.993-11.13-11.13s4.993-11.13,11.13-11.13
	s11.13,4.993,11.13,11.13S173.094,289.391,166.957,289.391z"/>
<path d="M345.043,311.652c18.412,0,33.391-14.979,33.391-33.391s-14.979-33.391-33.391-33.391s-33.391,14.979-33.391,33.391
	S326.632,311.652,345.043,311.652z M345.043,267.13c6.137,0,11.13,4.993,11.13,11.13s-4.993,11.13-11.13,11.13
	s-11.13-4.993-11.13-11.13S338.906,267.13,345.043,267.13z"/>
<path d="M200.348,311.652c-6.147,0-11.13,4.983-11.13,11.13c0,36.824,29.959,66.783,66.783,66.783s66.783-29.959,66.783-66.783
	c0-6.147-4.983-11.13-11.13-11.13H200.348z M256,367.304c-20.707,0-38.158-14.21-43.113-33.391h86.226
	C294.158,353.094,276.707,367.304,256,367.304z"/>
<g>
</g>
<g>
</g>
<g>
</g>
<g>
</g>
<g>
</g>
<g>
</g>
<g>
</g>
<g>
</g>
<g>
</g>
<g>
</g>
<g>
</g>
<g>
</g>
<g>
</g>
<g>
</g>
<g>
</g>
</svg>
