<svg width="120" height="120" viewBox="0 0 120 120" fill="none" xmlns="http://www.w3.org/2000/svg">
<circle cx="61" cy="60" r="51" fill="#E0E7FF"/>
<path d="M100.406 24.5C100.406 23.332 99.418 22.3438 98.25 22.3438C96.9922 22.3438 96.0938 23.332 96.0938 24.5C96.0938 25.7578 96.9922 26.6562 98.25 26.6562C99.418 26.6562 100.406 25.7578 100.406 24.5ZM92.5 24.5C92.5 22.5234 93.5781 20.6367 95.375 19.5586C97.082 18.5703 99.3281 18.5703 101.125 19.5586C102.832 20.6367 104 22.5234 104 24.5C104 26.5664 102.832 28.4531 101.125 29.5312C99.3281 30.5195 97.082 30.5195 95.375 29.5312C93.5781 28.4531 92.5 26.5664 92.5 24.5ZM58 33.125C58 27.1953 62.7617 22.3438 68.7812 22.3438H81V20.3672C81 19.4688 81.7188 18.75 82.5273 18.75C82.8867 18.75 83.2461 18.9297 83.5156 19.1094L88.9961 23.4219C89.3555 23.6914 89.625 24.0508 89.625 24.5C89.625 24.9492 89.3555 25.3984 88.9961 25.668L83.5156 29.9805C83.2461 30.1602 82.8867 30.25 82.5273 30.25C81.7188 30.25 81 29.5312 81 28.7227V26.6562H68.7812C65.1875 26.6562 62.3125 29.6211 62.3125 33.125C62.3125 36.7188 65.1875 39.5938 68.7812 39.5938H93.2188C99.1484 39.5938 104 44.4453 104 50.375C104 55.7656 100.047 60.168 95.0156 61.0664C94.1172 63.2227 92.0508 64.75 89.625 64.75C86.3906 64.75 83.875 62.2344 83.875 59C83.875 55.8555 86.3906 53.25 89.625 53.25C91.8711 53.25 93.9375 54.6875 94.8359 56.6641C97.6211 55.9453 99.6875 53.4297 99.6875 50.375C99.6875 46.8711 96.7227 43.9062 93.2188 43.9062H68.7812C62.7617 43.9062 58 39.1445 58 33.125ZM69.0508 56.8438H72.375V54.8672C72.375 53.9688 73.0938 53.25 73.9023 53.25C74.2617 53.25 74.6211 53.4297 74.8906 53.6094L80.3711 57.9219C80.7305 58.1914 81 58.5508 81 59C81 59.4492 80.7305 59.8984 80.3711 60.168L74.8906 64.4805C74.6211 64.6602 74.2617 64.75 73.9023 64.75C73.0938 64.75 72.375 64.0312 72.375 63.2227V61.1562H69.0508C68.1523 63.3125 66.0859 64.75 63.75 64.75C60.5156 64.75 58 62.2344 58 59C58 55.8555 60.5156 53.25 63.75 53.25C66.0859 53.25 68.1523 54.7773 69.0508 56.8438ZM65.9062 59C65.9062 57.832 64.918 56.8438 63.75 56.8438C62.4922 56.8438 61.5938 57.832 61.5938 59C61.5938 60.2578 62.4922 61.1562 63.75 61.1562C64.918 61.1562 65.9062 60.2578 65.9062 59ZM89.625 61.1562C90.793 61.1562 91.7812 60.2578 91.7812 59C91.7812 57.832 90.793 56.8438 89.625 56.8438C88.3672 56.8438 87.4688 57.832 87.4688 59C87.4688 60.2578 88.3672 61.1562 89.625 61.1562Z" fill="#6366F1"/>
<path d="M13 67.6562C13 63.3438 16.5039 59.75 20.9062 59.75H48.2188C50.9141 59.75 53.25 62.0859 53.25 64.7812V90.6562C53.25 92.7227 51.9922 94.4297 50.375 95.2383V101.438H51.0938C52.2617 101.438 53.25 102.426 53.25 103.594C53.25 104.852 52.2617 105.75 51.0938 105.75H20.1875C16.1445 105.75 13 102.605 13 98.5625C13 98.3828 13 98.1133 13 97.8438V67.6562ZM20.1875 95.6875C18.5703 95.6875 17.3125 97.0352 17.3125 98.5625C17.3125 100.18 18.5703 101.438 20.1875 101.438H46.0625V95.6875H20.1875ZM17.3125 92.0039C18.1211 91.6445 19.1094 91.375 20.1875 91.375H48.2188C48.5781 91.375 48.9375 91.1055 48.9375 90.6562V64.7812C48.9375 64.4219 48.5781 64.0625 48.2188 64.0625H20.9062C18.8398 64.0625 17.3125 65.6797 17.3125 67.6562V92.0039ZM26.6562 69.8125H42.4688C43.6367 69.8125 44.625 70.8008 44.625 71.9688C44.625 73.2266 43.6367 74.125 42.4688 74.125H26.6562C25.3984 74.125 24.5 73.2266 24.5 71.9688C24.5 70.8008 25.3984 69.8125 26.6562 69.8125ZM26.6562 77H42.4688C43.6367 77 44.625 77.9883 44.625 79.1562C44.625 80.4141 43.6367 81.3125 42.4688 81.3125H26.6562C25.3984 81.3125 24.5 80.4141 24.5 79.1562C24.5 77.9883 25.3984 77 26.6562 77Z" fill="#3730A3"/>
</svg>
