<svg width="120" height="120" viewBox="0 0 120 120" fill="none" xmlns="http://www.w3.org/2000/svg">
<circle cx="60" cy="60" r="51" fill="#E0E7FF"/>
<path d="M19.3125 12.7812V44.4062C19.3125 45.6641 20.2109 46.5625 21.4688 46.5625H58.8438C60.0117 46.5625 61 47.5508 61 48.7188C61 49.9766 60.0117 50.875 58.8438 50.875H21.4688C17.875 50.875 15 48 15 44.4062V12.7812C15 11.6133 15.8984 10.625 17.1562 10.625C18.3242 10.625 19.3125 11.6133 19.3125 12.7812ZM57.4961 22.9336L45.1875 35.1523C44.3789 36.0508 43.0312 36.0508 42.2227 35.1523L35.125 28.0547L28.0273 35.1523C27.1289 36.0508 25.7812 36.0508 24.9727 35.1523C24.0742 34.3438 24.0742 32.9961 24.9727 32.1875L33.5977 23.5625C33.957 23.1133 34.4961 22.9336 35.125 22.9336C35.6641 22.9336 36.2031 23.1133 36.6523 23.5625L43.75 30.6602L54.4414 19.9688C55.25 19.0703 56.5977 19.0703 57.4961 19.9688C58.3047 20.7773 58.3047 22.125 57.4961 22.9336Z" fill="#6366F1"/>
<path d="M66.1562 10.625C67.3242 10.625 68.3125 11.6133 68.3125 12.7812V44.4062C68.3125 45.6641 69.2109 46.5625 70.4688 46.5625H107.844C109.012 46.5625 110 47.5508 110 48.7188C110 49.9766 109.012 50.875 107.844 50.875H70.4688C66.875 50.875 64 48 64 44.4062V12.7812C64 11.6133 64.8984 10.625 66.1562 10.625ZM75.5 19.9688C75.5 18.8008 76.3984 17.8125 77.6562 17.8125H96.3438C97.5117 17.8125 98.5 18.8008 98.5 19.9688C98.5 21.2266 97.5117 22.125 96.3438 22.125H77.6562C76.3984 22.125 75.5 21.2266 75.5 19.9688ZM77.6562 26.4375H90.5938C91.7617 26.4375 92.75 27.4258 92.75 28.5938C92.75 29.8516 91.7617 30.75 90.5938 30.75H77.6562C76.3984 30.75 75.5 29.8516 75.5 28.5938C75.5 27.4258 76.3984 26.4375 77.6562 26.4375ZM77.6562 35.0625H102.094C103.262 35.0625 104.25 36.0508 104.25 37.2188C104.25 38.4766 103.262 39.375 102.094 39.375H77.6562C76.3984 39.375 75.5 38.4766 75.5 37.2188C75.5 36.0508 76.3984 35.0625 77.6562 35.0625Z" fill="#3730A3"/>
<path d="M67.1562 58.625C68.3242 58.625 69.3125 59.6133 69.3125 60.7812V92.4062C69.3125 93.6641 70.2109 94.5625 71.4688 94.5625H108.844C110.012 94.5625 111 95.5508 111 96.7188C111 97.9766 110.012 98.875 108.844 98.875H71.4688C67.875 98.875 65 96 65 92.4062V60.7812C65 59.6133 65.8984 58.625 67.1562 58.625ZM80.0938 75.875C81.2617 75.875 82.25 76.8633 82.25 78.0312V85.2188C82.25 86.4766 81.2617 87.375 80.0938 87.375C78.8359 87.375 77.9375 86.4766 77.9375 85.2188V78.0312C77.9375 76.8633 78.8359 75.875 80.0938 75.875ZM90.875 69.4062V85.2188C90.875 86.4766 89.8867 87.375 88.7188 87.375C87.4609 87.375 86.5625 86.4766 86.5625 85.2188V69.4062C86.5625 68.2383 87.4609 67.25 88.7188 67.25C89.8867 67.25 90.875 68.2383 90.875 69.4062ZM97.3438 73C98.5117 73 99.5 73.9883 99.5 75.1562V85.2188C99.5 86.4766 98.5117 87.375 97.3438 87.375C96.0859 87.375 95.1875 86.4766 95.1875 85.2188V75.1562C95.1875 73.9883 96.0859 73 97.3438 73ZM108.125 63.6562V85.2188C108.125 86.4766 107.137 87.375 105.969 87.375C104.711 87.375 103.812 86.4766 103.812 85.2188V63.6562C103.812 62.4883 104.711 61.5 105.969 61.5C107.137 61.5 108.125 62.4883 108.125 63.6562Z" fill="#6366F1"/>
<path d="M53.75 65.0625H22.125C21.3164 65.0625 20.6875 65.7812 20.6875 66.5V70.2734C19.3398 69.7344 17.9023 69.375 16.375 69.375V66.5C16.375 63.3555 18.8906 60.75 22.125 60.75H53.75C56.8945 60.75 59.5 63.3555 59.5 66.5V92.375C59.5 95.6094 56.8945 98.125 53.75 98.125H32.1875C31.4688 96.5078 30.4805 95.0703 29.2227 93.8125H53.75C54.4688 93.8125 55.1875 93.1836 55.1875 92.375V66.5C55.1875 65.7812 54.4688 65.0625 53.75 65.0625ZM39.0156 73.3281C38.6562 72.8789 38.4766 72.25 38.7461 71.7109C38.9258 71.1719 39.4648 70.8125 40.0938 70.8125H48C48.7188 70.8125 49.4375 71.5312 49.4375 72.25V80.1562C49.4375 80.7852 49.0781 81.3242 48.5391 81.5039C48 81.7734 47.3711 81.5938 46.9219 81.2344L44.4961 78.8086L38.0273 85.2773C37.1289 86.1758 35.7812 86.1758 34.9727 85.2773L29.2227 79.5273C28.3242 78.7188 28.3242 77.3711 29.2227 76.5625C30.0312 75.6641 31.3789 75.6641 32.2773 76.5625L36.5 80.7852L41.4414 75.7539L39.0156 73.3281ZM16.375 85.1875C17.9023 85.1875 19.25 84.3789 20.0586 83.0312C20.8672 81.7734 20.8672 80.0664 20.0586 78.7188C19.25 77.4609 17.9023 76.5625 16.375 76.5625C14.7578 76.5625 13.4102 77.4609 12.6016 78.7188C11.793 80.0664 11.793 81.7734 12.6016 83.0312C13.4102 84.3789 14.7578 85.1875 16.375 85.1875ZM16.375 72.25C19.4297 72.25 22.2148 73.957 23.832 76.5625C25.3594 79.2578 25.3594 82.582 23.832 85.1875C22.2148 87.8828 19.4297 89.5 16.375 89.5C13.2305 89.5 10.4453 87.8828 8.82812 85.1875C7.30078 82.582 7.30078 79.2578 8.82812 76.5625C10.4453 73.957 13.2305 72.25 16.375 72.25ZM13.9492 96.6875C10.3555 96.6875 7.39062 99.2031 6.49219 102.438H26.168C25.2695 99.2031 22.3047 96.6875 18.7109 96.6875H13.9492ZM13.9492 92.375H18.7109C25.3594 92.375 30.75 97.7656 30.75 104.414C30.75 105.672 29.6719 106.75 28.3242 106.75H4.33594C2.98828 106.75 2 105.762 2 104.414C2 97.7656 7.30078 92.375 13.9492 92.375Z" fill="#3730A3"/>
</svg>
