<svg width="120" height="120" viewBox="0 0 120 120" fill="none" xmlns="http://www.w3.org/2000/svg">
<circle cx="61" cy="60" r="51" fill="#E0E7FF"/>
<path d="M47.6875 92.125V93.5625L54.1562 88.7109C54.875 88.1719 55.7734 87.8125 56.7617 87.8125H69.25C69.9688 87.8125 70.6875 87.1836 70.6875 86.375V60.5C70.6875 59.7812 69.9688 59.0625 69.25 59.0625H34.75C33.9414 59.0625 33.3125 59.7812 33.3125 60.5V86.375C33.3125 87.1836 33.9414 87.8125 34.75 87.8125H43.375C45.7109 87.8125 47.6875 89.7891 47.6875 92.125ZM47.5977 99.043L47.1484 99.3125L45.6211 100.48C45.1719 100.84 44.6328 100.84 44.0938 100.66C43.6445 100.391 43.375 99.9414 43.375 99.3125V97.4258V96.8867V96.7969V96.4375V92.125H39.0625H34.75C31.5156 92.125 29 89.6094 29 86.375V60.5C29 57.3555 31.5156 54.75 34.75 54.75H69.25C72.3945 54.75 75 57.3555 75 60.5V86.375C75 89.6094 72.3945 92.125 69.25 92.125H56.7617L47.6875 98.9531L47.5977 99.043ZM46.25 70.5625C44.6328 70.5625 43.375 69.3047 43.375 67.6875C43.375 66.1602 44.6328 64.8125 46.25 64.8125C47.7773 64.8125 49.125 66.1602 49.125 67.6875C49.125 69.3047 47.7773 70.5625 46.25 70.5625ZM57.75 70.5625C56.1328 70.5625 54.875 69.3047 54.875 67.6875C54.875 66.1602 56.1328 64.8125 57.75 64.8125C59.2773 64.8125 60.625 66.1602 60.625 67.6875C60.625 69.3047 59.2773 70.5625 57.75 70.5625ZM42.4766 76.2227C43.375 75.4141 44.7227 75.5039 45.5312 76.3125C47.0586 78.1094 49.3945 79.1875 51.9102 79.1875C54.5156 79.1875 56.7617 78.1094 58.3789 76.3125C59.1875 75.5039 60.5352 75.4141 61.4336 76.2227C62.332 76.9414 62.4219 78.3789 61.6133 79.1875C59.1875 81.8828 55.7734 83.5 51.9102 83.5C48.1367 83.5 44.6328 81.8828 42.2969 79.1875C41.4883 78.3789 41.5781 76.9414 42.4766 76.2227Z" fill="#3730A3"/>
<path d="M53.4688 17.0625C52.2109 17.0625 51.3125 18.0508 51.3125 19.2188V35.0312C51.3125 36.2891 52.2109 37.1875 53.4688 37.1875H57.7812C58.9492 37.1875 59.9375 38.1758 59.9375 39.3438V41.1406L65.1484 37.5469C65.5078 37.3672 65.957 37.1875 66.4062 37.1875H77.9062C79.0742 37.1875 80.0625 36.2891 80.0625 35.0312V19.2188C80.0625 18.0508 79.0742 17.0625 77.9062 17.0625H53.4688ZM47 19.2188C47 15.7148 49.875 12.75 53.4688 12.75H77.9062C81.4102 12.75 84.375 15.7148 84.375 19.2188V35.0312C84.375 38.625 81.4102 41.5 77.9062 41.5H67.0352L58.9492 46.8906C58.2305 47.3398 57.4219 47.4297 56.7031 47.0703C55.9844 46.6211 55.625 45.9023 55.625 45.0938V41.5H53.4688C49.875 41.5 47 38.625 47 35.0312V19.2188ZM70 44.375H74.3125V46.5312C74.3125 47.7891 75.2109 48.6875 76.4688 48.6875H85.0938C85.4531 48.6875 85.9023 48.8672 86.2617 49.0469L91.5625 52.6406V50.8438C91.5625 49.6758 92.4609 48.6875 93.7188 48.6875H98.0312C99.1992 48.6875 100.188 47.7891 100.188 46.5312V30.7188C100.188 29.5508 99.1992 28.5625 98.0312 28.5625H87.25V24.25H98.0312C101.535 24.25 104.5 27.2148 104.5 30.7188V46.5312C104.5 50.125 101.535 53 98.0312 53H95.875V56.5938C95.875 57.4023 95.4258 58.1211 94.707 58.5703C93.9883 58.9297 93.1797 58.8398 92.4609 58.3906L84.375 53H76.4688C72.875 53 70 50.125 70 46.5312V44.375ZM60.207 21.4648C60.7461 20.0273 62.0938 19.1289 63.5312 19.1289H67.2148C69.3711 19.1289 71.168 20.8359 71.168 23.082C71.168 24.4297 70.3594 25.7773 69.1914 26.4062L67.125 27.6641C67.125 28.4727 66.4062 29.1016 65.6875 29.1016C64.8789 29.1016 64.25 28.4727 64.25 27.6641V26.8555C64.25 26.3164 64.5195 25.8672 64.9688 25.5977L67.7539 23.9805C68.1133 23.8008 68.293 23.4414 68.293 23.082C68.293 22.4531 67.8438 22.0039 67.2148 22.0039H63.5312C63.2617 22.0039 63.082 22.1836 62.9922 22.3633L62.9023 22.4531C62.6328 23.1719 61.8242 23.6211 61.1055 23.3516C60.3867 23.082 59.9375 22.2734 60.207 21.4648ZM63.6211 33.2344C63.5312 32.5156 63.8906 31.7969 64.6094 31.4375C65.2383 30.9883 66.0469 30.9883 66.6758 31.4375C67.3047 31.7969 67.7539 32.5156 67.6641 33.2344C67.7539 34.043 67.3047 34.7617 66.6758 35.1211C66.0469 35.5703 65.2383 35.5703 64.6094 35.1211C63.8906 34.7617 63.5312 34.043 63.6211 33.2344Z" fill="#6366F1"/>
</svg>
