<svg width="79" height="61" viewBox="0 0 79 61" fill="none" xmlns="http://www.w3.org/2000/svg">
<g clip-path="url(#clip0_8123_991)">
<path d="M0.735981 34.3566C0.0950874 20.9224 3.49665 20.4793 3.49665 20.4793L5.69551 20.3733L7.07648 49.2293L4.87762 49.3353C4.87779 49.3306 1.42103 48.6721 0.735981 34.3566Z" fill="url(#paint0_linear_8123_991)"/>
<path d="M78.3717 32.8531C77.9941 18.9648 75.1459 18.669 75.1459 18.669L72.946 18.672L72.9574 47.5599L75.1573 47.5569C75.1527 47.5568 78.762 47.1817 78.3717 32.8531Z" fill="url(#paint1_linear_8123_991)"/>
<path d="M74.4872 30.7946C73.8215 16.461 71.7592 11.8218 68.9655 8.7436C67.589 7.22625 62.5792 3.67307 57.2976 2.57193C52.846 1.64476 44.2839 1.26703 40.1415 1.2538C40.1042 1.2525 40.062 1.25571 40.0247 1.25441C39.9874 1.25311 39.9452 1.25632 39.9079 1.25502C35.7693 1.27 27.204 1.65495 22.7533 2.58563C17.4745 3.69338 12.4702 7.25347 11.0959 8.76861C8.30342 11.8489 5.15869 17.8135 4.50263 32.1479C3.96681 43.8236 5.79748 49.4843 6.71297 51.7717C7.59389 53.9785 9.39993 57.9255 18.3784 58.8231C20.5799 59.0448 33.0091 59.6976 39.0668 59.698C45.1248 59.6937 57.1139 59.0302 59.9614 58.8065C68.9578 58.109 72.5069 53.9507 73.3821 51.7443C74.2976 49.4551 75.0303 42.4705 74.4872 30.7946Z" fill="url(#paint2_linear_8123_991)" stroke="#5A5B5C" stroke-width="0.8187" stroke-miterlimit="10"/>
<path d="M40.064 55.1888C40.0594 55.1886 40.0594 55.1886 40.0547 55.1885C40.0547 55.1885 40.1111 55.4478 40.064 55.1888Z" fill="#0A161D"/>
<path d="M14.6158 11.6307C14.6158 11.6307 14.616 11.627 14.62 11.6196C14.6124 11.6231 14.6122 11.6269 14.6158 11.6307Z" fill="url(#paint3_linear_8123_991)" stroke="#333333" stroke-width="0.8187" stroke-miterlimit="10"/>
<path d="M67.2234 15.0706C67.1374 14.7213 64.5732 6.10571 63.6929 4.55417C62.9313 3.21734 61.0506 2.09424 59.5085 1.84867C57.9804 1.60359 49.734 1.27897 40.3607 1.2614C40.3234 1.2601 40.1786 1.25974 40.1411 1.26312C30.7663 1.28761 22.5206 1.61817 20.9941 1.86451C19.4536 2.11036 17.7023 3.31756 16.8133 4.5735C15.7133 6.12627 12.7228 14.3753 12.6359 14.7279C12.7124 14.6745 13.0939 13.9109 14.3946 13.8439C20.8374 13.5161 31.7802 13.3964 39.9258 13.3946C46.0863 13.3939 57.3117 13.607 65.4544 13.8251C66.8359 13.8545 67.155 15.0215 67.2234 15.0706Z" fill="url(#paint4_radial_8123_991)" stroke="#5A5B5C" stroke-width="0.8187" stroke-miterlimit="10"/>
<path d="M68.5454 33.0043C68.3852 24.4124 67.9814 18.8066 67.7286 15.9902C67.6173 14.7557 66.5945 13.8076 65.3621 13.788C59.0693 13.6854 41.0034 13.392 39.4854 13.3905C38.0794 13.393 20.2682 13.7027 14.454 13.8087C13.3418 13.826 12.3901 14.6024 12.1423 15.6886C11.5473 18.3023 10.5966 23.7719 10.4408 32.5868C10.2746 41.8365 11.6495 48.2623 12.3092 50.7934C12.5194 51.6009 13.1279 52.2397 13.9225 52.4921C16.4451 53.2913 23.354 54.7536 40.0803 54.7523C40.0848 54.7571 40.0861 54.7197 40.0882 54.659C40.1672 55.0735 40.0941 54.7575 40.0942 54.7528C56.3817 54.7455 63.3613 53.3559 66.0425 52.5417C66.9487 52.2692 67.6109 51.4921 67.7369 50.5513C68.0836 47.9571 68.7136 41.9054 68.5454 33.0043Z" fill="url(#paint5_linear_8123_991)" stroke="url(#paint6_linear_8123_991)" stroke-width="0.5644" stroke-miterlimit="10"/>
<path d="M44.5717 35.1848C43.8891 32.3285 46.8109 31.3012 49.1439 33.0843V33.0843C50.825 34.3692 53.1953 34.3955 54.9054 33.1483V33.1483C57.2789 31.4173 60.1764 32.5092 59.4283 35.3496V35.3496C58.9354 37.2211 57.0156 38.3622 55.2442 39.0323C53.1263 39.8335 50.769 39.8073 48.67 38.9593C46.9145 38.2501 45.0214 37.0667 44.5717 35.1848V35.1848Z" fill="#FACC15"/>
<path d="M20.4272 34.8929C19.7446 32.0366 22.6663 31.0093 24.9994 32.7925V32.7925C26.6805 34.0773 29.0507 34.1036 30.7609 32.8564V32.8564C33.1344 31.1254 36.0319 32.2173 35.2838 35.0577V35.0577C34.7909 36.9292 32.871 38.0704 31.0997 38.7404C28.9817 39.5416 26.6245 39.5155 24.5255 38.6675C22.77 37.9583 20.8769 36.7748 20.4272 34.8929V34.8929Z" fill="#FACC15"/>
<path d="M68.5187 33.2072C68.3591 24.6145 67.9557 19.0083 67.7031 16.1917C67.5918 14.9571 66.5692 14.0089 65.3368 13.9894C59.0444 13.8873 40.9793 13.5951 39.4614 13.5937C38.0554 13.5962 20.245 13.9072 14.4311 14.0136C13.3188 14.031 12.3671 14.8075 12.1193 15.8939C11.5242 18.5078 10.5731 23.9779 10.4167 32.7936C10.25 42.0442 11.6244 48.4704 12.2839 51.0017C12.494 51.8092 13.1024 52.4481 13.897 52.7004C16.4194 53.4996 23.3279 54.9615 40.0534 54.959C40.0579 54.9639 40.0592 54.9265 40.0613 54.8657C40.0694 54.9034 40.0729 54.9363 40.0767 54.9599C56.3588 54.9513 63.3335 53.561 66.0147 52.7465C66.9209 52.4739 67.583 51.6967 67.7091 50.7558C68.0513 48.1612 68.6816 42.1089 68.5187 33.2072ZM66.6104 50.1139C66.4903 51.0176 65.8526 51.7628 64.984 52.0274C62.4068 52.808 55.7001 54.1468 40.0533 54.1541C40.1007 54.4038 40.0438 54.1585 40.044 54.1538C40.0487 54.154 40.0487 54.154 40.0533 54.1541C40.0495 54.1306 40.0413 54.0976 40.0377 54.0647C40.0356 54.1255 40.0345 54.1582 40.0298 54.158C23.9534 54.1644 17.3094 52.7537 14.8884 51.9909C14.1262 51.7491 13.5403 51.1343 13.3385 50.3552C12.7036 47.923 11.3859 41.7468 11.545 32.8516C11.6942 24.3773 12.6098 19.1212 13.1827 16.6095C13.4198 15.5648 14.3377 14.8199 15.4079 14.801C20.9974 14.7009 38.1163 14.3986 39.4661 14.3988C40.9234 14.398 58.2883 14.6799 64.3379 14.7782C65.5237 14.7961 66.5055 15.7101 66.6139 16.8932C66.8609 19.6019 67.2484 24.9923 67.4008 33.2525C67.5524 41.8076 66.9442 47.6266 66.6104 50.1139Z" fill="#0A161D"/>
</g>
<defs>
<linearGradient id="paint0_linear_8123_991" x1="2.96896" y1="22.2079" x2="4.29489" y2="49.7862" gradientUnits="userSpaceOnUse">
<stop stop-color="#11232A"/>
<stop offset="0.9924" stop-color="#0B131B"/>
</linearGradient>
<linearGradient id="paint1_linear_8123_991" x1="74.6465" y1="18.7616" x2="75.9725" y2="46.3399" gradientUnits="userSpaceOnUse">
<stop stop-color="#11232A"/>
<stop offset="0.9924" stop-color="#0B131B"/>
</linearGradient>
<linearGradient id="paint2_linear_8123_991" x1="39.364" y1="-16.6184" x2="39.5997" y2="55.4497" gradientUnits="userSpaceOnUse">
<stop stop-color="#F1F0F0"/>
<stop offset="1" stop-color="#797979"/>
</linearGradient>
<linearGradient id="paint3_linear_8123_991" x1="13.9993" y1="-1.25623" x2="17.3298" y2="68.0295" gradientUnits="userSpaceOnUse">
<stop stop-color="#F1F0F0"/>
<stop offset="1" stop-color="#797979"/>
</linearGradient>
<radialGradient id="paint4_radial_8123_991" cx="0" cy="0" r="1" gradientUnits="userSpaceOnUse" gradientTransform="translate(40.0927 -5.23178) rotate(-2.75259) scale(86.3416 86.5081)">
<stop offset="0.0864" stop-color="#F1F0F0"/>
<stop offset="1" stop-color="#797979"/>
</radialGradient>
<linearGradient id="paint5_linear_8123_991" x1="40.013" y1="20.8446" x2="39.2663" y2="41.9746" gradientUnits="userSpaceOnUse">
<stop stop-color="#11232A"/>
<stop offset="0.9924" stop-color="#0B131B"/>
</linearGradient>
<linearGradient id="paint6_linear_8123_991" x1="10.2805" y1="32.8635" x2="68.8283" y2="34.891" gradientUnits="userSpaceOnUse">
<stop stop-color="#11232A"/>
<stop offset="0.9924" stop-color="#0B131B"/>
</linearGradient>
<clipPath id="clip0_8123_991">
<rect width="79" height="61" fill="white"/>
</clipPath>
</defs>
</svg>
